<svg width="16" height="16" viewBox="0 0 16 16" fill="none" xmlns="http://www.w3.org/2000/svg">
<path d="M8.59722 3.12531V7.62818L11.2032 8.93159L10.6664 10.0048L7.39722 8.36972V3.12531H8.59722Z" fill="black" fill-opacity="0.9"/>
<path fill-rule="evenodd" clip-rule="evenodd" d="M15.7992 7.99995C15.7992 12.3078 12.307 15.8 7.99922 15.8C3.6914 15.8 0.199219 12.3078 0.199219 7.99995C0.199219 3.69213 3.6914 0.199951 7.99922 0.199951C12.307 0.199951 15.7992 3.69213 15.7992 7.99995ZM1.39922 7.99995C1.39922 11.645 4.35414 14.6 7.99922 14.6C11.6443 14.6 14.5992 11.645 14.5992 7.99995C14.5992 4.35487 11.6443 1.39995 7.99922 1.39995C4.35414 1.39995 1.39922 4.35487 1.39922 7.99995Z" fill="black" fill-opacity="0.9"/>
</svg>
