<svg width="32" height="32" viewBox="0 0 32 32" fill="none" xmlns="http://www.w3.org/2000/svg">
<path d="M13.1382 17.672L12.0602 19.184C12.8003 19.9361 13.8459 20.4846 15.249 20.6299V22.7654H16.749V20.6276C18.7673 20.3968 19.7462 19.2032 19.7462 17.672C19.7462 15.5593 17.7885 15.0966 16.249 14.7327L16.2184 14.7254C15.2225 14.4904 14.3842 14.2925 14.3842 13.696C14.3842 13.136 14.8602 12.758 15.7142 12.758C16.6662 12.758 17.6742 13.08 18.4302 13.78L19.5362 12.324C18.7954 11.6394 17.8568 11.2157 16.749 11.0745V9.25H15.249V11.0613C13.4373 11.2883 12.3542 12.469 12.3542 13.864C12.3542 15.9634 14.2618 16.4004 15.7783 16.7478L15.8402 16.762L15.9167 16.7809C16.9052 17.0241 17.7302 17.2272 17.7302 17.896C17.7302 18.428 17.1982 18.932 16.1062 18.932C14.8182 18.932 13.7962 18.358 13.1382 17.672Z" fill="#00A650"/>
<path d="M24.999 17.5C25.8274 17.5 26.499 16.8284 26.499 16C26.499 15.1716 25.8274 14.5 24.999 14.5C24.1706 14.5 23.499 15.1716 23.499 16C23.499 16.8284 24.1706 17.5 24.999 17.5Z" fill="#00A650"/>
<path d="M8.499 16C8.499 16.8284 7.82743 17.5 6.999 17.5C6.17057 17.5 5.499 16.8284 5.499 16C5.499 15.1716 6.17057 14.5 6.999 14.5C7.82743 14.5 8.499 15.1716 8.499 16Z" fill="#00A650"/>
<path fill-rule="evenodd" clip-rule="evenodd" d="M0.25 5.49667H31.749V26.5033H0.25V5.49667ZM1.75 6.99667V25.0033H30.249V6.99667H1.75Z" fill="#00A650"/>
</svg>
